<?xml version="1.0" standalone="no"?>
<!DOCTYPE svg PUBLIC "-//W3C//DTD SVG 20010904//EN"
 "http://www.w3.org/TR/2001/REC-SVG-20010904/DTD/svg10.dtd">
<svg version="1.0" xmlns="http://www.w3.org/2000/svg"
 width="1254.000000pt" height="1254.000000pt" viewBox="0 0 1254.000000 1254.000000"
 preserveAspectRatio="xMidYMid meet">
<metadata>
Created by potrace 1.16, written by Peter Selinger 2001-2019
</metadata>
<g transform="translate(0.000000,1254.000000) scale(0.100000,-0.100000)"
fill="#DEB887" stroke="none">
<path d="M4829 10037 c-636 -366 -1400 -816 -1439 -846 -55 -44 -60 -72 -50
-292 10 -213 37 -835 45 -1049 3 -74 8 -193 11 -265 l5 -130 -337 -220 c-186
-121 -355 -236 -375 -255 -20 -19 -41 -52 -47 -73 -7 -25 -8 -138 -2 -345 5
-169 12 -482 15 -697 4 -214 11 -406 16 -425 5 -20 22 -48 37 -64 17 -16 136
-75 283 -140 l254 -113 6 -69 c4 -38 12 -143 18 -234 21 -291 41 -561 51 -695
6 -71 19 -248 30 -392 11 -144 24 -273 29 -285 16 -42 54 -66 259 -162 169
-79 504 -251 1152 -588 135 -71 136 -71 358 89 98 69 213 152 257 183 44 31
197 141 340 245 142 103 269 194 282 202 21 14 56 -1 616 -271 666 -321 645
-314 728 -254 57 41 239 186 684 542 198 159 415 332 482 385 67 53 130 112
141 131 19 33 21 60 28 443 l7 408 311 238 c357 272 490 374 774 589 112 85
212 168 223 186 18 30 19 62 19 924 0 969 2 925 -54 969 -13 11 -306 113 -650
228 l-626 207 0 629 c0 688 0 687 -59 728 -14 10 -363 114 -775 231 -592 168
-757 211 -788 207 -26 -3 -125 -56 -299 -157 -255 -150 -260 -152 -297 -142
-20 6 -352 117 -737 246 -457 154 -714 236 -741 236 -33 0 -68 -16 -185 -83z
m1011 -436 c437 -147 964 -319 1170 -384 206 -64 476 -148 599 -186 122 -38
225 -72 228 -75 3 -2 -46 -38 -109 -79 -146 -95 -1115 -716 -1156 -741 -7 -4
-141 37 -320 99 -754 263 -885 308 -1867 639 -363 123 -666 225 -673 227 -7 2
38 34 100 70 159 92 700 410 973 572 136 81 236 134 245 130 8 -3 373 -126
810 -272z m1357 88 c43 -12 177 -49 298 -84 121 -34 364 -104 540 -154 176
-50 347 -99 380 -109 l60 -18 3 -552 2 -552 -27 6 c-16 4 -77 24 -138 44
l-110 37 -6 164 c-3 90 -7 249 -8 352 -1 254 -10 272 -153 316 -40 13 -170 54
-288 91 -118 38 -300 96 -405 129 -104 33 -268 85 -364 116 l-174 57 45 28
c81 51 253 149 260 150 4 0 43 -9 85 -21z m-3412 -853 c1338 -452 2049 -695
2513 -859 84 -30 155 -57 158 -60 9 -8 59 -1405 51 -1413 -4 -4 -260 98 -353
140 l-31 14 -12 129 c-36 393 -51 525 -62 559 -20 65 -25 67 -469 226 -254 90
-673 235 -860 297 -69 22 -143 41 -166 41 -35 0 -79 -24 -341 -189 -166 -104
-316 -199 -334 -212 l-32 -23 -99 35 c-55 19 -104 37 -109 40 -9 5 -28 383
-49 989 -6 173 -13 323 -15 333 -1 9 2 17 8 17 7 0 98 -29 202 -64z m4184
-441 c6 -198 13 -497 16 -665 l7 -305 -173 -120 c-94 -66 -211 -147 -258 -181
-81 -56 -172 -121 -501 -353 -246 -173 -314 -220 -316 -218 -3 3 -39 1048 -45
1306 l-2 84 629 408 c346 224 630 407 631 406 1 -1 6 -164 12 -362z m1037
-589 c358 -119 656 -216 663 -216 35 0 40 4 -788 -608 -156 -116 -551 -410
-1219 -909 -282 -211 -517 -383 -524 -383 -6 0 -131 49 -277 109 -146 60 -435
175 -641 256 -478 189 -450 177 -450 184 1 6 8 11 182 129 l106 73 272 -112
c313 -129 310 -128 412 -57 35 24 207 145 383 269 176 124 455 319 620 433
395 275 441 310 461 348 15 30 16 67 10 389 l-7 357 73 -23 c40 -12 366 -120
724 -239z m-4176 -215 c267 -90 570 -195 775 -270 77 -28 146 -54 154 -56 8
-4 -14 -25 -59 -58 -40 -28 -123 -88 -184 -133 -61 -44 -273 -197 -471 -339
-198 -142 -365 -262 -371 -266 -6 -5 -106 25 -230 67 -782 269 -923 318 -956
327 -21 6 -38 14 -37 17 0 6 321 264 440 353 78 59 177 124 524 346 77 50 149
90 160 90 11 1 126 -35 255 -78z m4980 -934 l0 -732 -172 -130 c-260 -195
-806 -613 -1063 -813 -55 -43 -201 -157 -325 -252 -207 -161 -344 -268 -772
-605 l-156 -123 -6 81 c-3 45 -13 332 -21 637 -8 305 -18 605 -22 666 l-6 111
129 96 c71 52 172 127 224 167 52 39 126 95 165 123 38 29 304 227 590 440
286 213 599 446 695 517 96 72 301 224 455 339 154 115 281 210 283 210 1 1 2
-329 2 -732z m-6150 642 c0 -14 -284 -241 -441 -352 -103 -73 -102 -66 -79
-373 42 -571 50 -671 55 -719 12 -104 34 -469 29 -474 -2 -3 -35 9 -72 27 -37
17 -110 51 -163 75 l-96 44 -7 219 c-19 589 -24 992 -15 1034 21 94 35 105
406 345 51 33 142 92 203 132 106 68 112 71 145 60 19 -6 35 -14 35 -18z
m2203 -316 c3 -27 12 -122 18 -212 13 -161 13 -164 -8 -180 -11 -9 -105 -74
-207 -145 -127 -88 -192 -139 -203 -160 -19 -36 -19 -59 2 -401 31 -507 55
-907 71 -1185 8 -157 20 -297 26 -311 17 -48 61 -75 228 -142 91 -36 226 -91
300 -122 74 -31 181 -75 237 -98 57 -23 103 -44 103 -48 0 -3 -78 -59 -172
-124 -256 -176 -903 -635 -1170 -830 -52 -38 -63 -43 -65 -28 -3 17 -34 486
-68 1013 -8 124 -22 320 -30 435 -8 116 -26 383 -40 595 -14 212 -39 576 -55
810 -19 276 -26 428 -20 434 15 15 1034 744 1041 745 4 1 9 -20 12 -46z
m-1632 -610 l336 -117 12 -156 c28 -385 73 -1023 101 -1445 17 -253 42 -622
55 -820 27 -383 40 -578 51 -768 l7 -118 -44 24 c-273 152 -827 435 -1029 527
l-125 57 -17 219 c-16 213 -38 505 -58 789 -20 292 -102 1414 -125 1734 -14
183 -25 341 -25 352 0 20 56 2 861 -278z m2039 -577 c479 -190 750 -302 761
-313 9 -9 63 -1531 55 -1539 0 -1 -109 45 -241 103 -209 91 -581 248 -950 400
-60 25 -111 47 -113 48 -3 2 -7 69 -37 535 -18 281 -55 943 -55 977 0 22 1 22
83 -12 45 -19 269 -108 497 -199z m2205 -1711 c-4 -22 -22 -44 -68 -79 -34
-28 -82 -66 -106 -85 -410 -330 -937 -748 -939 -746 -2 2 -7 88 -12 191 -5
104 -12 227 -15 274 l-6 85 68 52 c37 28 167 129 288 224 226 177 503 393 565
441 19 15 78 60 130 101 l95 75 3 -252 c2 -138 0 -264 -3 -281z m-1560 -313
l220 -99 12 -229 c7 -126 12 -243 10 -261 l-2 -32 -365 177 c-201 97 -402 194
-448 216 l-82 38 207 144 c114 79 212 144 218 144 6 0 110 -44 230 -98z"/>
</g>
</svg>
